<?xml version="1.0" standalone="no"?>
<!DOCTYPE svg PUBLIC "-//W3C//DTD SVG 20010904//EN"
 "http://www.w3.org/TR/2001/REC-SVG-20010904/DTD/svg10.dtd">
<svg version="1.0" xmlns="http://www.w3.org/2000/svg"
 width="512.000000pt" height="512.000000pt" viewBox="0 0 512.000000 512.000000"
 preserveAspectRatio="xMidYMid meet">
<metadata>
Created by potrace 1.11, written by Peter Selinger 2001-2013
</metadata>
<g transform="translate(0.000000,512.000000) scale(0.100000,-0.100000)"
fill="#000000" stroke="none">
<path d="M3730 3497 c-3 -2 -27 -7 -55 -10 -193 -21 -388 -112 -513 -239 -175
-178 -254 -402 -251 -708 2 -226 46 -403 139 -559 65 -108 198 -224 318 -278
142 -63 228 -78 452 -78 226 1 308 10 488 56 62 16 114 29 116 29 1 0 2 199 2
443 l-1 442 -307 3 c-288 2 -308 1 -309 -15 -1 -32 -1 -148 0 -160 1 -10 48
-13 201 -13 l200 0 0 -27 c3 -161 -1 -527 -5 -531 -3 -3 -11 -7 -18 -8 -7 -2
-21 -5 -33 -8 -12 -2 -45 -7 -75 -11 -30 -4 -57 -9 -61 -11 -9 -6 -274 -6
-313 0 -135 20 -263 72 -345 141 -48 40 -130 142 -130 163 0 6 -3 12 -8 12
-14 0 -68 179 -78 258 -9 80 -9 267 0 330 18 126 56 228 120 322 31 46 133
150 147 150 4 0 14 6 21 13 34 34 168 82 271 98 64 10 244 7 317 -5 55 -9 191
-47 234 -66 52 -22 72 -18 82 13 4 12 17 45 30 74 31 66 30 78 -3 91 -40 16
-122 43 -147 48 -11 3 -41 9 -66 14 -25 5 -56 12 -70 15 -32 8 -343 19 -350
12z"/>
<path d="M694 3475 c-2 -5 -2 -417 -1 -915 l2 -905 95 0 95 0 -1 730 c0 402
-4 766 -7 810 -6 69 -5 77 6 60 7 -11 82 -202 167 -425 84 -223 159 -418 166
-435 7 -16 38 -97 69 -180 31 -82 70 -184 86 -225 16 -41 51 -133 78 -205 l49
-130 86 -3 c86 -3 86 -3 97 25 6 15 15 37 20 48 5 11 15 38 22 60 8 22 42 112
77 200 34 88 75 194 90 235 39 104 238 620 249 645 5 11 34 88 66 170 87 229
89 234 95 225 3 -5 3 -38 -1 -72 -4 -35 -7 -395 -8 -800 l-2 -738 106 0 c77 0
105 3 106 13 5 63 3 1796 -2 1807 -6 13 -32 16 -158 15 -82 0 -153 -3 -156 -7
-3 -3 -51 -122 -106 -264 -55 -143 -122 -317 -150 -389 -28 -71 -59 -152 -69
-180 -11 -27 -25 -63 -31 -80 -7 -16 -13 -35 -14 -41 -2 -6 -10 -27 -19 -45
-8 -19 -42 -106 -76 -194 -33 -88 -64 -169 -69 -180 -5 -11 -18 -42 -28 -70
-31 -79 -21 -94 -138 215 -37 96 -75 195 -85 220 -10 25 -35 90 -55 145 -20
55 -43 114 -50 130 -7 17 -56 145 -109 285 -53 140 -101 264 -106 275 -4 11
-20 52 -34 90 -15 39 -30 75 -34 80 -9 14 -313 14 -318 0z"/>
</g>
</svg>
